<?xml version="1.0" encoding="utf-8" ?>
<svg xmlns="http://www.w3.org/2000/svg" xmlns:xlink="http://www.w3.org/1999/xlink" width="374" height="135">
	<path fill="#FEFEFE" d="M0 0L373.562 0C373.857 0.446519 373.948 0.83604 373.971 1.36253C374.131 4.89389 374.001 8.48913 374.002 12.0264L374.005 32.5199L374.006 94.8489L374.002 123.298C374.001 125.915 374.406 131.947 373.914 134.218C373.853 134.497 373.719 134.763 373.562 135L0 135L0 0Z"/>
	<path fill="#222123" d="M64.1733 26.8487Q65.1692 26.7485 66.1688 26.6972Q67.1685 26.6459 68.1694 26.6436Q69.1703 26.6413 70.1702 26.688Q71.17 26.7347 72.1664 26.8303Q73.1627 26.9259 74.1532 27.0702Q75.1437 27.2145 76.1259 27.4071Q77.1082 27.5997 78.0798 27.8402Q79.0514 28.0806 80.0101 28.3684Q80.9688 28.6561 81.9122 28.9905Q82.8557 29.3248 83.7816 29.705Q84.7076 30.0851 85.6138 30.5101Q86.52 30.9352 87.4043 31.404Q88.2887 31.8729 89.1489 32.3845Q90.0093 32.8962 90.8435 33.4493Q91.6777 34.0024 92.4838 34.5957Q93.29 35.189 94.0661 35.8211Q94.8422 36.4532 95.5865 37.1225Q96.3307 37.7918 97.0413 38.4968Q97.7518 39.2017 98.4271 39.9406Q99.1023 40.6795 99.7405 41.4506Q100.379 42.2217 100.978 43.0231Q101.578 43.8245 102.138 44.6543Q102.698 45.4841 103.216 46.3403Q103.734 47.1965 104.21 48.0771Q104.686 48.9576 105.118 49.8605Q105.551 50.7633 105.938 51.6862Q106.326 52.6091 106.667 53.5498Q107.009 54.4906 107.305 55.4469Q107.6 56.4033 107.848 57.373Q108.096 58.3427 108.297 59.3233Q108.497 60.304 108.649 61.2933Q108.801 62.2826 108.905 63.2782Q109.009 64.2738 109.063 65.2732Q109.118 66.2727 109.124 67.2736Q109.129 68.2745 109.086 69.2746Q109.042 70.2746 108.95 71.2712Q108.858 72.2679 108.717 73.2589Q108.576 74.2499 108.387 75.2327Q108.197 76.2156 107.96 77.1881Q107.723 78.1605 107.438 79.1201Q107.154 80.0798 106.823 81.0244Q106.492 81.9689 106.115 82.8961Q105.737 83.8234 105.315 84.731Q104.894 85.6387 104.428 86.5246Q103.962 87.4105 103.453 88.2725Q102.944 89.1345 102.394 89.9706Q101.844 90.8066 101.253 91.6148Q100.662 92.4229 100.033 93.2011Q99.4034 93.9794 98.7365 94.7259Q98.0697 95.4724 97.3671 96.1853Q96.6646 96.8982 95.9279 97.5759Q95.1913 98.2536 94.4224 98.8944Q93.6534 99.5352 92.854 100.138Q92.0546 100.74 91.2267 101.303Q90.3988 101.865 89.5443 102.386Q88.6898 102.908 87.8108 103.386Q86.9319 103.865 86.0305 104.301Q85.1291 104.736 84.2075 105.126Q83.2859 105.517 82.3463 105.862Q81.4067 106.207 80.4513 106.505Q79.4959 106.804 78.5271 107.055Q77.5582 107.307 76.5782 107.511Q75.5982 107.714 74.6094 107.87Q73.6206 108.025 72.6254 108.132Q71.6259 108.239 70.6224 108.297Q69.6188 108.355 68.6136 108.364Q67.6085 108.373 66.6041 108.332Q65.5997 108.291 64.5985 108.201Q63.5973 108.111 62.6018 107.971Q61.6063 107.832 60.6188 107.644Q59.6313 107.456 58.6543 107.22Q57.6773 106.983 56.7131 106.699Q55.7488 106.415 54.7998 106.084Q53.8507 105.752 52.919 105.375Q51.9874 104.997 51.0754 104.575Q50.1634 104.152 49.2734 103.685Q48.3833 103.217 47.5173 102.707Q46.6513 102.197 45.8114 101.644Q44.9715 101.092 44.1598 100.499Q43.3481 99.9061 42.5666 99.2739Q41.785 98.6418 41.0355 97.9719Q40.286 97.3021 39.5703 96.5962Q38.8546 95.8903 38.1745 95.1501Q37.4944 94.4099 36.8515 93.6371Q36.2086 92.8644 35.6045 92.0609Q35.0004 91.2575 34.4365 90.4253Q33.8727 89.5931 33.3504 88.7342Q32.8281 87.8753 32.3487 86.9918Q31.8693 86.1083 31.4339 85.2022Q30.9986 84.2962 30.6082 83.3698Q30.218 82.4435 29.8737 81.499Q29.5294 80.5546 29.232 79.5944Q28.9346 78.6342 28.6847 77.6605Q28.4349 76.6868 28.2332 75.702Q28.0315 74.7173 27.8786 73.7237Q27.7256 72.7302 27.6216 71.7304Q27.5176 70.7306 27.463 69.7269Q27.4083 68.7231 27.403 67.7179Q27.3978 66.7127 27.4419 65.7085Q27.4861 64.7042 27.5796 63.7034Q27.6731 62.7025 27.8157 61.7075Q27.9584 60.7124 28.1497 59.7256Q28.3411 58.7387 28.5807 57.7625Q28.8204 56.7863 29.1078 55.823Q29.3951 54.8598 29.7295 53.9118Q30.0639 52.9638 30.4445 52.0334Q30.8251 51.1031 31.251 50.1925Q31.6769 49.282 32.147 48.3935Q32.6172 47.505 33.1304 46.6407Q33.6437 45.7764 34.1989 44.9384Q34.754 44.1003 35.3497 43.2906Q35.9454 42.4809 36.5801 41.7015Q37.2149 40.9221 37.8872 40.1748Q38.5596 39.4275 39.2678 38.7142Q39.9761 38.0009 40.7186 37.3232Q41.4611 36.6456 42.236 36.0053Q43.0109 35.365 43.8163 34.7636Q44.6218 34.1622 45.4558 33.6011Q46.2899 33.04 47.1505 32.5206Q48.0111 32.0012 48.8963 31.5248Q49.7814 31.0483 50.6889 30.616Q51.5964 30.1836 52.524 29.7964Q53.4517 29.4092 54.3973 29.0681Q55.3428 28.727 56.304 28.4328Q57.2652 28.1386 58.2397 27.892Q59.2142 27.6454 60.1997 27.447Q61.1851 27.2487 62.1791 27.099Q63.1731 26.9493 64.1733 26.8487Z"/>
	<path fill="#FEFEFE" d="M67.4618 40.2818C69.0975 40.1935 70.0619 40.474 71.3052 41.5593C75.5002 45.2208 79.3515 49.4858 83.2918 53.4268C86.5184 56.6541 90.2548 59.8713 93.08 63.4448C93.704 64.2341 94.3054 65.0444 94.3569 66.0862C94.4312 67.5898 93.4546 68.74 92.5231 69.801C90.5972 70.5064 88.8186 70.5047 86.7982 70.508Q86.7132 75.8002 86.782 81.0926C86.8153 83.201 87.0931 85.6518 86.7504 87.7225C86.6162 88.5337 86.3067 89.326 85.7214 89.9202C83.3936 92.2835 73.1009 91.4017 69.625 91.3775C65.527 91.3884 57.2963 91.88 53.71 91.2314C52.7795 91.0632 51.8751 90.7652 51.186 90.0882C50.5264 89.4402 50.2382 88.5447 50.092 87.653C49.7459 85.542 49.9948 83.1128 50.0136 80.9716Q50.0375 75.7421 49.9975 70.5127C48.2897 70.5318 46.5977 70.5961 44.9748 69.97C43.9686 69.5818 43.0148 68.957 42.5876 67.9224C42.223 67.0391 42.2902 65.8073 42.661 64.9372C43.5884 62.7609 62.4875 44.0865 65.4752 41.5015C66.0932 40.9669 66.698 40.5755 67.4618 40.2818Z"/>
	<path fill="#222123" d="M68.4191 43.6707L82.1335 57.4194C85.1464 60.4485 88.3324 63.4161 91.0952 66.6735C89.0787 66.8731 85.4315 66.2348 83.744 67.2173C82.6368 70.1317 83.233 83.5117 83.2249 87.6963C78.3653 87.8069 73.4868 87.7261 68.625 87.733L53.6093 87.7273C53.458 84.2081 54.1047 69.7938 53.0411 67.3566C51.2113 66.337 47.876 66.7566 45.7827 66.7716C47.8615 63.6968 51.1386 60.9471 53.7668 58.3164L68.4191 43.6707Z"/>
	<path fill="#222123" d="M214.271 59.3748C216.848 59.1421 219.404 59.5367 221.647 60.8859C224.474 62.5869 226.248 65.5368 227.041 68.6835C228.081 72.8056 227.591 77.4653 225.384 81.1283C223.858 83.663 221.524 85.6403 218.617 86.3593C215.967 87.0145 212.468 86.7937 210.265 85.0251C209.173 84.1486 208.295 83.1207 207.076 82.394L206.999 82.3489C207.184 82.6466 207.358 82.9739 207.444 83.3164C207.746 84.5096 207.767 86.302 207.11 87.3751C207.2 87.514 207.275 87.6578 207.342 87.8088C207.958 89.1908 207.731 93.312 207.217 94.7042C205.04 94.5761 202.782 94.7046 200.596 94.7082C200.761 94.4535 200.896 94.1629 200.948 93.8622C201.425 91.1343 201.022 85.2161 201.024 82.2224C201.03 75.2229 201.438 67.961 200.987 60.9869C200.957 60.5258 200.852 60.187 200.586 59.8034C202.78 59.7467 204.982 59.7907 207.177 59.7992C207.272 59.9492 207.349 60.1031 207.405 60.2719C207.795 61.4662 207.507 62.4093 206.938 63.4726C209.925 61.993 210.479 60.0707 214.271 59.3748Z"/>
	<path fill="#FEFEFE" d="M213.037 65.1248C214.915 64.9399 216.663 65.1754 218.174 66.3754C219.814 67.6771 220.628 69.6304 220.858 71.6723C221.123 74.0185 220.786 76.6546 219.256 78.539C218.018 80.0643 216.644 80.5598 214.739 80.7466C213.404 80.8906 211.943 80.6481 210.792 79.9433C209.116 78.9177 208.109 77.1658 207.681 75.2842C207.135 72.8801 207.445 70.0861 208.801 67.9915C209.849 66.3721 211.174 65.5174 213.037 65.1248Z"/>
	<path fill="#222123" d="M123.859 50.368C131.222 51.2111 141.392 48.1885 147.565 53.5574C149.831 55.5291 150.985 58.3264 151.189 61.2902C151.397 64.3243 150.44 67.4172 148.421 69.7114C145.774 72.718 142.336 73.4187 138.539 73.6801C135.989 73.9062 133.295 73.7485 130.728 73.7642L130.696 86.0172Q127.24 86.1078 123.784 86.0419C123.664 78.8318 123.764 71.6032 123.759 64.3912C123.755 59.7678 123.501 54.972 123.859 50.368Z"/>
	<path fill="#FEFEFE" d="M130.734 56.463C133.428 56.4135 136.352 56.1752 139.005 56.6647C140.541 56.9481 142.099 57.5743 143.003 58.9158C143.906 60.2555 143.983 62.133 143.681 63.6745C143.446 64.8759 142.882 65.7028 141.87 66.3735C141.83 66.4934 141.781 66.5855 141.691 66.677C139.917 68.471 133.186 67.9184 130.74 67.9367L130.734 56.463Z"/>
	<path fill="#222123" d="M182.006 59.3102Q182.34 59.2743 182.676 59.2548Q183.011 59.2352 183.347 59.2321Q183.683 59.229 184.019 59.2423Q184.355 59.2556 184.69 59.2853Q185.025 59.315 185.358 59.361Q185.69 59.4071 186.021 59.4693Q186.351 59.5315 186.678 59.6098Q187.005 59.6881 187.327 59.7823Q187.65 59.8765 187.968 59.9863Q188.285 60.0961 188.597 60.2214Q188.909 60.3466 189.214 60.4869Q189.52 60.6272 189.818 60.7823Q190.116 60.9373 190.406 61.1068Q190.697 61.2762 190.978 61.4596Q191.26 61.6431 191.532 61.84Q191.805 62.037 192.067 62.247Q192.329 62.4571 192.581 62.6797Q192.833 62.9023 193.074 63.1369Q193.314 63.3716 193.543 63.6177Q193.772 63.8638 193.989 64.1208Q194.205 64.3779 194.409 64.6451Q194.613 64.9124 194.803 65.1894Q194.994 65.4663 195.17 65.7522Q195.347 66.0381 195.509 66.3323Q195.672 66.6264 195.82 66.9282Q195.968 67.23 196.101 67.5387Q196.234 67.8473 196.352 68.1621Q196.47 68.4769 196.572 68.797Q196.674 69.1172 196.761 69.442Q196.847 69.7667 196.918 70.0953Q196.988 70.424 197.042 70.7556Q197.097 71.0873 197.135 71.4212Q197.173 71.7551 197.195 72.0905Q197.217 72.4259 197.222 72.7619Q197.227 73.098 197.216 73.4339Q197.205 73.7698 197.178 74.1047Q197.15 74.4397 197.106 74.7729Q197.063 75.1061 197.003 75.4368Q196.942 75.7675 196.866 76.0948Q196.79 76.4222 196.698 76.7454Q196.606 77.0686 196.498 77.387Q196.391 77.7054 196.268 78.0181Q196.144 78.3308 196.006 78.6371Q195.868 78.9434 195.715 79.2426Q195.562 79.5418 195.394 79.8332Q195.227 80.1246 195.045 80.4074Q194.864 80.6902 194.668 80.9639Q194.473 81.2375 194.265 81.5012Q194.057 81.765 193.836 82.0183Q193.615 82.2715 193.382 82.5137Q193.149 82.7559 192.904 82.9864Q192.66 83.2169 192.404 83.4352Q192.148 83.6534 191.883 83.8589Q191.617 84.0645 191.341 84.2568Q191.065 84.4491 190.781 84.6276Q190.496 84.8062 190.203 84.9707Q189.91 85.1352 189.609 85.2851Q189.308 85.4351 189 85.5701Q188.693 85.7052 188.379 85.8251Q188.065 85.9449 187.745 86.0493Q187.426 86.1537 187.102 86.2424Q186.777 86.3311 186.449 86.4038Q186.121 86.4765 185.79 86.5331Q185.459 86.5897 185.125 86.63Q184.789 86.6707 184.45 86.6948Q184.112 86.7188 183.773 86.7262Q183.435 86.7336 183.096 86.7243Q182.757 86.7149 182.419 86.6889Q182.081 86.6629 181.745 86.6203Q181.408 86.5776 181.075 86.5184Q180.741 86.4593 180.41 86.3838Q180.08 86.3082 179.754 86.2165Q179.427 86.1248 179.106 86.0171Q178.785 85.9094 178.469 85.786Q178.153 85.6626 177.844 85.5238Q177.535 85.385 177.233 85.2311Q176.931 85.0773 176.637 84.9087Q176.343 84.7401 176.057 84.5573Q175.772 84.3744 175.496 84.1777Q175.22 83.981 174.954 83.771Q174.688 83.5609 174.432 83.338Q174.177 83.1151 173.933 82.8799Q173.689 82.6446 173.457 82.3977Q173.225 82.1507 173.005 81.8926Q172.785 81.6345 172.578 81.3659Q172.372 81.0972 172.178 80.8188Q171.985 80.5403 171.806 80.2526Q171.627 79.965 171.462 79.6688Q171.297 79.3727 171.147 79.0687Q170.997 78.7648 170.862 78.4539Q170.727 78.1429 170.607 77.8257Q170.488 77.5085 170.384 77.1858Q170.281 76.8631 170.193 76.5356Q170.105 76.2082 170.034 75.8769Q169.962 75.5455 169.907 75.211Q169.852 74.8766 169.814 74.5398Q169.776 74.203 169.754 73.8648Q169.732 73.5265 169.727 73.1876Q169.722 72.8487 169.733 72.51Q169.745 72.1712 169.773 71.8334Q169.801 71.4957 169.846 71.1597Q169.891 70.8237 169.953 70.4904Q170.014 70.1571 170.092 69.8271Q170.17 69.4972 170.263 69.1715Q170.357 68.8459 170.467 68.5252Q170.577 68.2045 170.702 67.8897Q170.828 67.5748 170.969 67.2665Q171.11 66.9582 171.266 66.6572Q171.421 66.3563 171.592 66.0633Q171.763 65.7704 171.947 65.4863Q172.132 65.2021 172.331 64.9274Q172.529 64.6526 172.741 64.388Q172.953 64.1234 173.177 63.8696Q173.402 63.6157 173.639 63.3733Q173.876 63.1308 174.124 62.9003Q174.373 62.6698 174.632 62.4518Q174.892 62.2338 175.162 62.0289Q175.432 61.824 175.712 61.6326Q175.991 61.4412 176.28 61.2639Q176.569 61.0865 176.866 60.9236Q177.163 60.7607 177.468 60.6127Q177.773 60.4646 178.085 60.3318Q178.397 60.1989 178.715 60.0816Q179.033 59.9642 179.356 59.8627Q179.68 59.7612 180.008 59.6758Q180.336 59.5903 180.668 59.5211Q180.999 59.4519 181.334 59.3992Q181.669 59.3464 182.006 59.3102Z"/>
	<path fill="#FEFEFE" d="M181.749 65.1245C183.76 64.8388 185.675 65.0328 187.352 66.2538C189.061 67.4976 190.054 69.4549 190.362 71.5175C190.707 73.8161 190.294 76.3969 188.87 78.2826C187.739 79.7807 186.389 80.5315 184.556 80.7993C183.475 81.2199 181.632 80.9581 180.579 80.4905C178.925 79.7562 177.776 78.0141 177.15 76.3786C176.275 74.0901 176.316 71.3231 177.334 69.0858C178.267 67.0349 179.67 65.8975 181.749 65.1245Z"/>
	<path fill="#222123" d="M275.896 59.3749C278.949 59.1182 282.434 59.4462 285.046 61.1513C287.14 62.5183 288.495 64.6811 289.007 67.1116C289.503 69.469 289.716 84.7066 288.837 86.0586C287.275 86.0825 285.16 86.4093 283.728 85.8221C283.255 85.2403 283.376 84.9143 283.396 84.1931L283.103 83.972C281.944 84.7153 280.694 85.6573 279.4 86.132C276.529 87.1855 272.972 87.0099 270.21 85.7024C267.344 84.3449 266.135 82.2205 265.11 79.375C265.384 78.829 265.373 77.9842 265.459 77.3662C265.748 75.2953 266.392 74.0439 268.088 72.7763C270.916 70.6633 274.782 69.9622 278.246 70.4819C279.62 70.6881 281.549 71.2821 282.411 72.4435C282.826 71.5446 282.882 69.9468 282.779 68.9575C282.667 67.8877 282.167 67.0004 281.33 66.3336C279.367 64.769 276.841 65.0509 274.532 65.3164C274.301 65.8061 271.566 68.7251 271.017 69.111C269.649 68.1371 267.139 67.3464 265.488 66.9341C266.481 66.2365 268.012 63.2777 268.865 62.1654C270.156 60.4823 273.869 59.6495 275.896 59.3749Z"/>
	<path fill="#FEFEFE" d="M275.238 75.1248C277.232 74.786 279.369 74.7672 281.144 75.8518C281.998 76.3739 282.787 77.2193 283.002 78.2233C283.132 78.8291 283.026 79.4366 282.673 79.9482C281.847 81.1434 280.368 81.5573 279.015 81.7724C277.664 82.1546 275.829 82.0754 274.536 81.5066C273.534 81.0657 272.605 80.2849 272.216 79.2371C271.963 78.5565 272.005 77.8268 272.313 77.1698C272.905 75.9093 274.024 75.5577 275.238 75.1248Z"/>
	<path fill="#222123" d="M322.207 50.375C324.238 50.4677 326.302 50.4049 328.338 50.4171C328.484 50.6483 328.603 50.9033 328.664 51.171C329.101 53.0923 328.948 67.7781 328.689 70.2785C328.641 70.74 328.477 71.1732 328.237 71.5686Q328.786 71.3168 329.229 70.9051C330.474 69.7412 337.935 61.0563 337.967 59.8159C340.606 59.7211 343.258 59.8003 345.898 59.8269C345.896 59.9507 345.888 60.0808 345.855 60.2009C345.601 61.1086 336.647 71.5543 335.36 72.3104C335.512 72.4123 335.658 72.5212 335.802 72.6327C336.801 73.4029 341.818 79.4433 341.976 80.6272C342.113 80.6945 342.257 80.7714 342.375 80.8696C343.361 81.6889 346.067 84.8641 346.134 86.007Q342.169 86.1345 338.204 86.0189C338.194 85.9218 338.181 85.8253 338.158 85.7302C337.842 84.4149 329.503 73.7478 328.115 72.9216C328.212 73.1075 328.295 73.2958 328.38 73.4871C328.475 73.6998 328.566 73.9113 328.619 74.1395C328.991 75.7514 329.061 84.7928 328.297 86.0216C326.148 86.1047 323.982 86.0602 321.831 86.0667C322.7 84.7193 322.217 54.2592 322.207 50.375Z"/>
	<path fill="#222123" d="M223.333 50.3748L251.831 50.4269C251.992 50.6755 252.124 50.9542 252.185 51.2454C252.459 52.5438 252.546 55.3876 251.819 56.5199C248.176 56.5862 244.526 56.5535 240.883 56.5662C241.006 56.793 241.112 57.0285 241.164 57.2827C241.535 59.0899 241.505 73.846 240.833 74.875C240.988 75.1132 241.124 75.3808 241.186 75.6598C241.544 77.2848 241.62 84.7718 240.818 86.0419L233.937 86.0686C234.084 85.8486 234.201 85.6167 234.285 85.3665C234.798 83.8421 234.578 57.6096 234.05 56.5779Q228.495 56.538 222.941 56.5769C223.831 55.2767 223.461 51.9412 223.333 50.3748Z"/>
	<path fill="#222123" d="M304.613 59.3749C305.941 59.2829 307.3 59.2707 308.618 59.4713C311.752 59.9485 315.067 61.5374 316.961 64.1474C317.734 65.2137 318.726 67.1641 318.511 68.4956C317.654 69.4191 314.154 70.1832 312.827 70.6096C312.843 70.485 312.854 70.3621 312.851 70.2362C312.83 69.1262 311.873 67.4733 311.057 66.7272C309.811 65.5877 307.815 65.0712 306.158 65.1434C304.434 65.2186 302.833 66.0255 301.673 67.2914C300.193 68.9066 299.629 70.978 299.74 73.1363C299.852 75.297 300.406 77.5673 302.075 79.0531C303.451 80.2776 305.182 80.8245 307.011 80.7058C308.48 80.6104 310.291 80.1537 311.288 78.9812C311.782 78.4003 312.516 77.2834 312.414 76.4946C312.408 76.4542 312.401 76.4141 312.394 76.3738C312.755 75.9521 312.87 75.8091 313.391 75.6212C315.114 75.8938 316.991 76.5983 318.529 77.4246C318.56 77.5167 318.559 77.5082 318.582 77.6175C318.793 78.6167 317.685 80.4697 317.156 81.2614C315.251 84.1123 312.388 85.8345 309.039 86.4889C305.459 87.1887 301.806 86.4986 298.784 84.4322C295.888 82.4518 294.033 79.325 293.417 75.8944C292.739 72.1194 293.361 67.89 295.581 64.7169C297.783 61.5712 300.93 60.0214 304.613 59.3749Z"/>
	<path fill="#222123" d="M166.827 59.3742C167.602 59.2967 168.347 59.2697 169.125 59.2948C169.202 59.4047 169.282 59.5302 169.319 59.6601C169.706 61.011 169.551 65.0294 168.919 66.224C167.85 66.2047 166.636 66.1215 165.592 66.3359C157.59 67.979 163.424 82.0522 160.838 86.0455C159.173 86.1133 157.204 86.3538 155.563 86.0482C154.838 85.9132 154.781 85.7215 154.387 85.1369Q154.597 84.7585 154.689 84.3353C155.135 82.1786 154.955 63.6909 154.736 60.8177C154.708 60.4395 154.586 60.1326 154.378 59.8153C156.54 59.7566 158.707 59.7976 160.869 59.8147C160.969 59.9609 161.051 60.1117 161.11 60.2784C161.516 61.4144 161.279 62.3801 160.771 63.4237C163.297 61.949 163.358 60.187 166.827 59.3742Z"/>
	<path fill="#222123" d="M261.515 59.3748C262.281 59.29 262.956 59.2527 263.724 59.3557C263.827 59.4602 263.918 59.5761 263.957 59.7202C264.307 61.0463 264.23 65.0093 263.628 66.2203C262.162 66.2027 260.687 66.2795 259.221 66.3213C258.899 67.1566 257.131 67.8322 256.637 68.8784C255.105 72.1261 256.057 78.1949 256.063 81.793C256.065 83.0352 256.212 84.9371 255.553 86.0232C253.916 86.1053 251.687 86.449 250.104 85.9859C249.432 85.7895 249.356 85.4413 249.046 84.8774Q249.263 84.5446 249.371 84.1627C249.812 82.5732 249.628 63.4668 249.442 60.9443C249.413 60.5401 249.289 60.1932 249.088 59.8419C251.25 59.7705 253.418 59.7932 255.581 59.7871C255.718 60.0067 255.807 60.2296 255.871 60.4801C256.164 61.6316 255.827 62.4738 255.256 63.4654C257.802 62.0403 258.208 60.0761 261.515 59.3748Z"/>
</svg>
