    <svg width="126" height="33" viewBox="0 0 126 33" fill="none" xmlns="http://www.w3.org/2000/svg">
<path d="M40.6918 9.03306C43.9596 9.03306 46.3674 11.8473 46.3674 15.616C46.3674 19.4091 43.9596 22.2233 40.6918 22.2233C38.8 22.2233 37.547 21.3179 36.7608 20.0699V26.0654H33.5913V9.32672H36.7608V11.1376C37.547 9.91404 38.8 9.03306 40.6918 9.03306ZM39.9302 19.4091C41.7974 19.4091 43.1242 18.0631 43.1242 15.6405C43.1242 13.2178 41.7974 11.8473 39.9302 11.8473C38.0384 11.8473 36.7116 13.2178 36.7116 15.6405C36.7116 18.0631 38.0384 19.4091 39.9302 19.4091ZM54.1471 9.03306H54.8105V12.4102H53.4842C52.0097 12.4102 50.9534 13.4625 50.9534 15.3224V21.9297H47.7838V9.32672H50.9534V11.1376C51.6657 9.66934 52.8208 9.03306 54.1471 9.03306ZM61.3728 22.2233C57.6381 22.2233 54.862 19.5314 54.862 15.616C54.862 11.7249 57.6381 9.03306 61.3728 9.03306C65.1564 9.03306 67.9325 11.7249 67.9325 15.616C67.9325 19.5314 65.1564 22.2233 61.3728 22.2233ZM61.3728 19.4336C63.2644 19.4336 64.6894 18.0387 64.6894 15.616C64.6894 13.2178 63.2644 11.8473 61.3728 11.8473C59.5054 11.8473 58.105 13.2178 58.105 15.616C58.105 18.0387 59.5054 19.4336 61.3728 19.4336ZM76.4553 9.03306C79.723 9.03306 82.1309 11.8473 82.1309 15.616C82.1309 19.4091 79.723 22.2233 76.4553 22.2233C74.5637 22.2233 73.3104 21.3179 72.5246 20.0699V26.0654H69.355V9.32672H72.5246V11.1376C73.3104 9.91404 74.5637 9.03306 76.4553 9.03306ZM75.6936 19.4091C77.561 19.4091 78.8879 18.0631 78.8879 15.6405C78.8879 13.2178 77.561 11.8473 75.6936 11.8473C73.8021 11.8473 72.4752 13.2178 72.4752 15.6405C72.4752 18.0631 73.8021 19.4091 75.6936 19.4091ZM95.1686 15.5915C95.1686 15.8118 95.1686 16.1054 95.1439 16.3257H86.2257C86.4221 18.5525 87.6014 19.5314 89.2229 19.5314C90.7216 19.5314 91.8026 18.8463 92.466 17.1332L95.1439 18.1121C94.1611 20.9508 91.9255 22.2233 89.3458 22.2233C85.6116 22.2233 83.0068 19.5803 83.0068 15.616C83.0068 11.7005 85.5622 9.03306 89.1982 9.03306C92.7118 9.03306 95.1686 11.676 95.1686 15.5915ZM89.1982 11.5781C87.6508 11.5781 86.668 12.4347 86.3239 14.1722H91.9502C91.6061 12.3857 90.5986 11.5781 89.1982 11.5781ZM102.976 9.03306H103.639V12.4102H102.313C100.838 12.4102 99.7817 13.4625 99.7817 15.3224V21.9297H96.6122V9.32672H99.7817V11.1376C100.495 9.66934 101.649 9.03306 102.976 9.03306ZM112.344 9.32672V11.8473H109.519V17.4024C109.519 18.6016 110.01 19.2134 110.993 19.2134H112.344V21.9297H110.6C107.897 21.9297 106.349 20.2412 106.349 17.5493V11.8473H104.657V9.32672H106.349V6.90402L109.519 5.1665V9.32672H112.344ZM118.98 16.1544L122.1 9.32672H125.564L117.948 26.0654H114.484L117.383 19.7027L112.493 9.32672H116.13L118.98 16.1544Z" fill="#26272B"/>
<path d="M5.03915 31.9172C4.31022 31.1973 4.3339 30.0194 5.08388 29.3205C9.50746 25.2002 15.302 24.14 23.5729 25.9855V11.151C23.5729 10.7871 23.3834 10.4494 23.0729 10.2609L13.9521 4.6643C13.6073 4.45226 13.1705 4.4575 12.8284 4.67477L4.16548 10.2321C3.8655 10.4259 3.68392 10.7557 3.68392 11.1117V22.004C7.7917 19.0983 13.2758 18.1716 19.0388 18.6428C20.0414 18.724 20.7887 19.6009 20.6992 20.5983V20.6375C20.6045 21.6323 19.7151 22.3573 18.7177 22.2605C12.7205 21.6951 8.28382 23.0903 4.25233 26.1635C2.5129 27.4881 0.00244141 26.2813 0.00244141 24.1007V10.2531C0.00244141 9.1851 0.547164 8.19037 1.44977 7.61447L11.6705 1.05972C12.6942 0.402679 14.0047 0.389591 15.0389 1.02569L25.7596 7.60135C26.6912 8.17463 27.2596 9.1851 27.2596 10.274V26.6111C27.2596 28.6346 25.3623 30.1293 23.3807 29.6686C17.0072 28.1791 11.1548 28.5299 7.5417 31.9591C6.84171 32.624 5.72859 32.5978 5.04177 31.9198L5.03915 31.9172Z" fill="url(#paint0_linear_2_5424)"/>
<defs>
<linearGradient id="paint0_linear_2_5424" x1="0.00243951" y1="32.3798" x2="27.3657" y2="0.636922" gradientUnits="userSpaceOnUse">
<stop stop-color="#E4002B"/>
<stop offset="1" stop-color="#8800B2"/>
</linearGradient>
</defs>
</svg>
