<svg width="80" height="19" viewBox="0 0 80 19" fill="none" xmlns="http://www.w3.org/2000/svg">
<g clip-path="url(#clip0_2_5427)">
<path d="M0.000169639 9.44727C-0.030955 14.6951 4.22484 18.973 9.50149 18.9998C14.7781 19.0308 19.0775 14.7962 19.1045 9.54841C19.1315 4.30267 14.8798 0.0268279 9.60314 7.56513e-07C9.58655 7.56513e-07 9.56995 7.56513e-07 9.54921 7.56513e-07C4.2995 -0.00206287 0.0271443 4.21804 0.000169639 9.44727Z" fill="#E4002B"/>
<path d="M12.8921 15.0379H6.21071C5.68159 15.0379 5.25206 14.6107 5.25206 14.0845V10.178H4.4511C4.06308 10.178 3.71657 9.94691 3.56717 9.59197C3.41777 9.23496 3.4987 8.82844 3.77259 8.55397L8.8708 3.45888C9.04927 3.2814 9.2962 3.17822 9.54933 3.17822C9.80247 3.17822 10.0494 3.2814 10.2279 3.45888L15.326 8.55397C15.6 8.82844 15.6809 9.23496 15.5315 9.59197C15.3821 9.94901 15.0356 10.178 14.6476 10.178H13.8507V14.0845C13.8507 14.6107 13.4213 15.0379 12.8921 15.0379ZM9.5514 4.00367C9.51614 4.00367 9.48501 4.01606 9.4601 4.0408L4.36187 9.13593C4.32454 9.17306 4.31415 9.22673 4.33492 9.27419C4.35566 9.32165 4.40131 9.35261 4.45317 9.35261H5.66913C5.89735 9.35261 6.0841 9.53833 6.0841 9.76534V14.0845C6.0841 14.1547 6.14221 14.2124 6.21277 14.2124H12.8942C12.9647 14.2124 13.0228 14.1547 13.0228 14.0845V9.76534C13.0228 9.53833 13.2096 9.35261 13.4378 9.35261H14.6538C14.7056 9.35261 14.7513 9.32165 14.7721 9.27419C14.7928 9.22673 14.7803 9.17306 14.7451 9.13593L9.6427 4.0408C9.61779 4.01606 9.58667 4.00367 9.5514 4.00367Z" fill="white"/>
<path d="M27.4581 13.8202L25.242 10.7867H24.1216V13.8202H22.501V5.52441H25.8375C27.732 5.52441 28.9002 6.53145 28.9002 8.20302C28.9002 9.42468 28.1491 10.312 26.9705 10.6443L29.4127 13.8202H27.4581ZM24.1195 6.95864V9.43501H25.7525C26.6572 9.43501 27.1946 9.02022 27.1946 8.20302C27.1946 7.36104 26.6468 6.95864 25.7525 6.95864H24.1195Z" fill="#3D3A40"/>
<path d="M35.9784 6.95864H31.76V8.8778H35.4659V10.2873H31.76V12.386H35.9784V13.8202H30.127V5.52441H35.9784V6.95864Z" fill="#3D3A40"/>
<path d="M43.064 13.8202L42.2652 11.674H39.1444L38.3455 13.8202H36.6523L39.9285 5.52441H41.5142L44.803 13.8202H43.064ZM39.632 10.3471H41.7777L40.7046 7.45596L39.632 10.3471Z" fill="#3D3A40"/>
<path d="M55.0967 9.25314C55.1321 9.47809 55.1445 9.68032 55.1445 9.88255C55.1445 12.5034 53.3789 13.9623 51.1855 13.9623C48.8595 13.9623 47.0107 12.2433 47.0107 9.66793C47.0107 7.09252 48.764 5.37354 51.1855 5.37354C52.7126 5.37354 54.2752 6.16801 54.9061 7.78179L53.5114 8.51641C53.0466 7.41239 52.2708 6.85522 51.1855 6.85522C49.7662 6.85522 48.7162 7.91178 48.7162 9.66587C48.7162 11.4096 49.8366 12.4765 51.1855 12.4765C52.5323 12.4765 53.3081 11.7522 53.4637 10.5677H51.1855V9.25108H55.0967V9.25314Z" fill="#3D3A40"/>
<path d="M59.4856 7.56934V9.20579H58.842C58.1264 9.20579 57.6137 9.71551 57.6137 10.6173V13.8201H56.0742V7.71172H57.6137V8.58876C57.9604 7.87682 58.5204 7.56934 59.1636 7.56934H59.4856Z" fill="#3D3A40"/>
<path d="M59.7471 10.7597C59.7471 8.87357 61.0935 7.56934 62.9073 7.56934C64.7433 7.56934 66.0921 8.87357 66.0921 10.7597C66.0921 12.6582 64.7457 13.9625 62.9073 13.9625C61.0955 13.9625 59.7471 12.6562 59.7471 10.7597ZM64.5172 10.7597C64.5172 9.5979 63.8263 8.93342 62.9073 8.93342C62.0002 8.93342 61.322 9.5979 61.322 10.7597C61.322 11.9339 62.0022 12.6108 62.9073 12.6108C63.8263 12.6087 64.5172 11.9339 64.5172 10.7597Z" fill="#3D3A40"/>
<path d="M66.9512 11.3645V7.71191H68.5014V11.2696C68.5014 12.1838 68.991 12.5986 69.6572 12.5986C70.3378 12.5986 70.8151 12.1838 70.8151 11.2696V7.71191H72.3649V11.3645C72.3649 13.001 71.2071 13.9626 69.6572 13.9626C68.1193 13.9626 66.9512 13.001 66.9512 11.3645Z" fill="#3D3A40"/>
<path d="M79.6875 10.7597C79.6875 12.5984 78.5194 13.9625 76.9321 13.9625C76.0127 13.9625 75.405 13.5229 75.0229 12.9183V15.8238H73.4854V7.71172H75.0229V8.58876C75.405 7.99652 76.0127 7.56934 76.9321 7.56934C78.5194 7.56934 79.6875 8.93342 79.6875 10.7597ZM78.1146 10.77C78.1146 9.59584 77.4714 8.93132 76.5648 8.93132C75.6477 8.93132 75.0022 9.59584 75.0022 10.77C75.0022 11.9442 75.6454 12.5963 76.5648 12.5963C77.4694 12.5984 78.1146 11.9442 78.1146 10.77Z" fill="#3D3A40"/>
</g>
<defs>
<clipPath id="clip0_2_5427">
<rect width="80" height="19" fill="white"/>
</clipPath>
</defs>
</svg>
